<svg xmlns="http://www.w3.org/2000/svg" width="25" height="25" viewBox="0 0 21 21" fill="none">
  <path d="M19.61 18.1901C20.2367 17.35 20.6668 16.3799 20.8685 15.3515C21.0702 14.323 21.0383 13.2624 20.7753 12.2478C20.5123 11.2333 20.0249 10.2908 19.349 9.4898C18.673 8.68883 17.8259 8.04986 16.87 7.62005C16.6618 6.42215 16.1833 5.28747 15.4708 4.30222C14.7584 3.31697 13.8307 2.50708 12.7583 1.93408C11.686 1.36108 10.4971 1.04006 9.28205 0.995391C8.06701 0.950725 6.85778 1.1836 5.74623 1.67631C4.63468 2.16903 3.65006 2.90863 2.86719 3.83891C2.08431 4.76918 1.52378 5.86567 1.22818 7.04505C0.932588 8.22443 0.909703 9.45567 1.16127 10.6452C1.41283 11.8348 1.93223 12.9513 2.67999 13.9101L1.28999 15.2901C1.15123 15.4307 1.05724 15.6093 1.01986 15.8032C0.982489 15.9972 1.00341 16.1979 1.07999 16.3801C1.15501 16.5627 1.28241 16.719 1.44613 16.8293C1.60985 16.9397 1.80257 16.9991 1.99999 17.0001H7.68999C8.25664 18.1947 9.15003 19.2043 10.2667 19.9122C11.3834 20.6201 12.6778 20.9973 14 21.0001H20C20.1974 20.9991 20.3901 20.9397 20.5539 20.8293C20.7176 20.719 20.845 20.5627 20.92 20.3801C20.9966 20.1979 21.0175 19.9972 20.9801 19.8032C20.9427 19.6093 20.8487 19.4307 20.71 19.2901L19.61 18.1901ZM6.99999 14.0001C7.00136 14.3349 7.02811 14.6692 7.07999 15.0001H4.40999L4.75999 14.6601C4.85372 14.5671 4.92811 14.4565 4.97888 14.3346C5.02965 14.2128 5.05579 14.0821 5.05579 13.9501C5.05579 13.818 5.02965 13.6873 4.97888 13.5655C4.92811 13.4436 4.85372 13.333 4.75999 13.2401C4.19955 12.6858 3.75524 12.0253 3.45304 11.2973C3.15085 10.5693 2.99683 9.78829 2.99999 9.00005C2.99999 7.40875 3.63213 5.88263 4.75735 4.75741C5.88257 3.63219 7.40869 3.00005 8.99999 3.00005C10.2417 2.99259 11.4545 3.37444 12.4679 4.09192C13.4814 4.8094 14.2445 5.82643 14.65 7.00005H14C12.1435 7.00005 10.363 7.73755 9.05024 9.05031C7.73749 10.3631 6.99999 12.1435 6.99999 14.0001ZM17.54 19.0001L17.59 19.0501H14C12.8433 19.048 11.7232 18.645 10.8303 17.9097C9.93746 17.1743 9.32716 16.1522 9.10339 15.0174C8.87961 13.8826 9.0562 12.7053 9.60307 11.6861C10.1499 10.6669 11.0333 9.86876 12.1025 9.42775C13.1718 8.98675 14.361 8.93011 15.4673 9.26748C16.5737 9.60486 17.5289 10.3154 18.1701 11.278C18.8114 12.2406 19.0991 13.3958 18.9842 14.5468C18.8693 15.6977 18.3589 16.7732 17.54 17.5901C17.3516 17.7747 17.2437 18.0263 17.24 18.2901C17.2405 18.4224 17.2673 18.5532 17.3188 18.6751C17.3703 18.797 17.4455 18.9074 17.54 19.0001Z" fill="black"/>
</svg>