<svg xmlns="http://www.w3.org/2000/svg" width="25" height="25" viewBox="0 0 118 108" fill="none">
  <path d="M88.5 0C73.75 0 66.3289 6.35023 59 14.7252C51.6711 6.35023 44.25 0 29.5 0C14.75 0 0 9.82446 0 39.2748C0 54 14.75 83.4504 59 108C103.25 83.4504 118 54 118 39.2748C118 9.82446 103.25 0 88.5 0ZM59 96.68C18.8293 72.8896 9.84102 47.3737 9.84102 39.2748C9.84102 25.8381 13.252 9.82446 29.5 9.82446C39.825 9.82446 44.8492 13.4827 51.602 21.1905L59 29.4504L66.398 21.1905C73.1508 13.4827 78.175 9.82446 88.5 9.82446C104.748 9.82446 108.159 25.8381 108.159 39.2748C108.159 47.3737 99.1707 72.8896 59 96.68Z" fill="black"/>
</svg>