<svg xmlns="http://www.w3.org/2000/svg" width="24" height="24" viewBox="0 0 115 115" fill="none">
  <path d="M57.5 0C25.7467 0 0 25.7467 0 57.5C0 89.2533 25.7467 115 57.5 115C89.2533 115 115 89.2533 115 57.5C115 25.7467 89.2533 0 57.5 0ZM57.5 105.246C31.1373 105.246 9.75446 83.8627 9.75446 57.5C9.75446 31.1373 31.1373 9.75446 57.5 9.75446C83.8627 9.75446 105.246 31.1373 105.246 57.5C105.246 83.8627 83.8627 105.246 57.5 105.246ZM82.9643 29.764C82.4616 29.5675 81.9252 29.4721 81.3856 29.4831C80.8461 29.4941 80.314 29.6114 79.8198 29.8281L45.0374 45.0502L29.8281 79.8326C29.3661 80.885 29.3661 82.0787 29.8281 83.1311C30.2645 84.1323 31.0731 84.9152 32.0999 85.3131C32.5876 85.5056 33.0882 85.5954 33.6016 85.5954C34.1663 85.5954 34.7182 85.4799 35.2444 85.2489L70.0268 70.0268L85.236 35.2444C85.458 34.7368 85.5751 34.1896 85.5804 33.6356C85.5857 33.0817 85.4791 32.5323 85.2669 32.0205C85.0548 31.5088 84.7415 31.0451 84.3458 30.6573C83.9501 30.2696 83.4802 29.9657 82.9643 29.764ZM65.817 60.375L69.1797 63.7377L63.7377 69.1797L40.558 74.4933L45.9487 51.3906L51.3906 45.9487L54.6635 49.2215L74.4933 40.558L65.817 60.375ZM51.3906 45.9487L45.9487 51.3906L40.558 74.4933L63.7377 69.1797L69.1797 63.7377L65.817 60.375L54.6763 49.2215L51.3906 45.9487Z" fill="black"/>
</svg>