<svg xmlns="http://www.w3.org/2000/svg" width="24" height="24" viewBox="0 0 40 40" fill="none">
  <mask id="mask0_102_25" style="mask-type:luminance" maskUnits="userSpaceOnUse" x="0" y="-1" width="40" height="41">
    <path d="M35 2H5C4.20435 2 3.44129 2.31607 2.87868 2.87868C2.31607 3.44129 2 4.20435 2 5V35C2 35.7956 2.31607 36.5587 2.87868 37.1213C3.44129 37.6839 4.20435 38 5 38H35C35.7956 38 36.5587 37.6839 37.1213 37.1213C37.6839 36.5587 38 35.7956 38 35V5C38 4.20435 37.6839 3.44129 37.1213 2.87868C36.5587 2.31607 35.7956 2 35 2Z" stroke="white" stroke-width="4" stroke-linecap="round" stroke-linejoin="round"/>
    <path d="M16.5 24V17.938L21.75 20.968L27 24L21.75 27.031L16.5 30.062V24Z" fill="white" stroke="white" stroke-width="4" stroke-linecap="round" stroke-linejoin="round"/>
    <path d="M2 11H38M29 2L23 11M17 2L11 11" stroke="white" stroke-width="4" stroke-linecap="round" stroke-linejoin="round"/>
  </mask>
  <g mask="url(#mask0_102_25)">
    <path d="M-4 -4H44V44H-4V-4Z" fill="black"/>
  </g>
</svg>