<svg xmlns="http://www.w3.org/2000/svg" width="24" height="24" viewBox="0 0 14 14" fill="none">
  <path fill-rule="evenodd" clip-rule="evenodd" d="M13.968 0.966048C14.0069 0.836314 14.01 0.698452 13.9769 0.567102C13.9438 0.435752 13.8757 0.315818 13.78 0.220036C13.6842 0.124254 13.5642 0.0562004 13.4329 0.0231014C13.3015 -0.00999763 13.1637 -0.00690611 13.034 0.0320477L0.533953 3.78205C0.395793 3.82363 0.272561 3.90419 0.179033 4.01405C0.0855059 4.12392 0.0256537 4.25843 0.00665379 4.40146C-0.0123461 4.54448 0.0103129 4.68995 0.0719136 4.82043C0.133514 4.9509 0.231442 5.06083 0.353953 5.13705L4.95195 7.99005C4.88157 7.9196 4.98962 8.08224 4.95195 7.99005C4.95195 7.99005 5.91237 9.05187 6.01195 9.05105L8.86395 13.646C8.94017 13.7686 9.0501 13.8665 9.18057 13.9281C9.31105 13.9897 9.45652 14.0123 9.59954 13.9933C9.74257 13.9743 9.87708 13.9145 9.98695 13.821C10.0968 13.7274 10.1774 13.6042 10.219 13.466L13.968 0.966048ZM7.10095 7.96005L9.25995 11.44L11.677 3.38405L7.10095 7.96005ZM10.616 2.32305L2.55995 4.74005L6.03995 6.90005L10.616 2.32305Z" fill="black"/>
</svg>